<svg xmlns="http://www.w3.org/2000/svg" xmlns:xlink="http://www.w3.org/1999/xlink" width="304" zoomAndPan="magnify" viewBox="0 0 228 47.25" height="63" preserveAspectRatio="xMidYMid meet" version="1.0"><defs><g/><clipPath id="ef8da93062"><path d="M 79.289062 5.855469 L 147.363281 5.855469 L 147.363281 44 L 79.289062 44 Z M 79.289062 5.855469 " clip-rule="nonzero"/></clipPath><clipPath id="21af74cb45"><path d="M 92 45 L 93 45 L 93 45.308594 L 92 45.308594 Z M 92 45 " clip-rule="nonzero"/></clipPath><clipPath id="63ee150649"><path d="M 109 3.085938 L 131.367188 3.085938 L 131.367188 30.9375 L 109 30.9375 Z M 109 3.085938 " clip-rule="nonzero"/></clipPath><clipPath id="be960ec51d"><path d="M 108.160156 3.085938 L 131 3.085938 L 131 30.9375 L 108.160156 30.9375 Z M 108.160156 3.085938 " clip-rule="nonzero"/></clipPath><clipPath id="6029dbd296"><path d="M 108.160156 3.085938 L 131 3.085938 L 131 16 L 108.160156 16 Z M 108.160156 3.085938 " clip-rule="nonzero"/></clipPath><clipPath id="c59ca2c8ed"><path d="M 113 11 L 126 11 L 126 30.9375 L 113 30.9375 Z M 113 11 " clip-rule="nonzero"/></clipPath><clipPath id="bd8ce93ec3"><path d="M 85 6 L 109.996094 6 L 109.996094 42.46875 L 85 42.46875 Z M 85 6 " clip-rule="nonzero"/></clipPath><clipPath id="d395dec14a"><path d="M 84.46875 5.339844 L 109.996094 5.339844 L 109.996094 42 L 84.46875 42 Z M 84.46875 5.339844 " clip-rule="nonzero"/></clipPath></defs><g clip-path="url(#ef8da93062)"><path fill="#000000" d="M 119.449219 6.585938 C 119.144531 6.605469 118.859375 6.574219 118.5625 6.636719 C 118.25 6.703125 117.910156 6.625 117.582031 6.621094 C 117.417969 6.621094 117.253906 6.644531 117.089844 6.65625 C 116.972656 6.664062 116.855469 6.683594 116.738281 6.6875 C 116.324219 6.703125 115.910156 6.707031 115.496094 6.726562 C 115.335938 6.734375 115.179688 6.777344 115.019531 6.792969 C 114.972656 6.800781 114.921875 6.777344 114.871094 6.769531 C 114.890625 6.734375 114.917969 6.699219 114.925781 6.660156 C 114.933594 6.636719 114.90625 6.589844 114.898438 6.589844 C 114.851562 6.59375 114.78125 6.59375 114.761719 6.625 C 114.632812 6.808594 114.429688 6.796875 114.25 6.824219 C 113.925781 6.875 113.601562 6.894531 113.277344 6.933594 C 113.0625 6.960938 112.851562 7.007812 112.636719 7.03125 C 112.367188 7.0625 112.09375 7.070312 111.824219 7.113281 C 111.484375 7.164062 111.144531 7.242188 110.800781 7.292969 C 110.59375 7.324219 110.382812 7.324219 110.175781 7.355469 C 109.929688 7.390625 109.691406 7.445312 109.449219 7.5 C 109.316406 7.527344 109.1875 7.578125 109.054688 7.59375 C 108.949219 7.605469 108.851562 7.589844 108.808594 7.714844 C 108.804688 7.730469 108.757812 7.734375 108.730469 7.734375 C 108.507812 7.75 108.285156 7.757812 108.058594 7.773438 C 108.054688 7.773438 108.050781 7.777344 108.046875 7.78125 C 107.832031 8.019531 107.542969 7.902344 107.292969 7.949219 C 107.128906 7.980469 106.96875 8.039062 106.804688 8.078125 C 106.636719 8.121094 106.460938 8.140625 106.292969 8.191406 C 105.988281 8.285156 105.691406 8.402344 105.386719 8.484375 C 105.207031 8.53125 105.050781 8.710938 104.835938 8.609375 C 104.820312 8.601562 104.792969 8.609375 104.769531 8.617188 C 104.511719 8.710938 104.257812 8.816406 103.992188 8.902344 C 103.773438 8.96875 103.546875 9.007812 103.328125 9.0625 C 103.199219 9.097656 103.070312 9.148438 102.941406 9.1875 C 102.691406 9.261719 102.460938 9.402344 102.183594 9.382812 C 102.132812 9.375 102.042969 9.410156 102.027344 9.449219 C 101.960938 9.597656 101.839844 9.59375 101.714844 9.582031 C 101.574219 9.574219 101.464844 9.636719 101.34375 9.695312 C 101.113281 9.800781 100.863281 9.855469 100.621094 9.933594 C 100.574219 9.945312 100.523438 9.949219 100.480469 9.96875 C 100.332031 10.042969 100.191406 10.144531 100.035156 10.203125 C 99.878906 10.257812 99.699219 10.261719 99.542969 10.320312 C 99.410156 10.375 99.296875 10.472656 99.171875 10.550781 C 99.140625 10.566406 99.101562 10.582031 99.070312 10.59375 C 98.734375 10.699219 98.398438 10.804688 98.066406 10.90625 C 98.050781 10.914062 98.019531 10.902344 98.015625 10.910156 C 97.824219 11.164062 97.496094 11.148438 97.253906 11.308594 C 97.15625 11.375 97.035156 11.464844 96.933594 11.449219 C 96.609375 11.40625 96.4375 11.664062 96.191406 11.777344 C 96.007812 11.859375 95.804688 11.910156 95.617188 11.992188 C 95.488281 12.046875 95.375 12.136719 95.25 12.199219 C 94.96875 12.347656 94.6875 12.492188 94.402344 12.632812 C 94.335938 12.664062 94.253906 12.671875 94.1875 12.707031 C 94.019531 12.800781 93.851562 12.90625 93.683594 13 C 93.382812 13.164062 93.082031 13.324219 92.78125 13.484375 C 92.480469 13.648438 92.167969 13.800781 91.875 13.980469 C 91.527344 14.1875 91.207031 14.433594 90.855469 14.632812 C 90.710938 14.714844 90.5625 14.792969 90.414062 14.875 C 90.289062 14.945312 90.1875 15.03125 90.085938 15.128906 C 90.023438 15.191406 89.929688 15.21875 89.847656 15.265625 C 89.75 15.328125 89.65625 15.386719 89.558594 15.449219 C 89.367188 15.574219 89.171875 15.695312 88.984375 15.824219 C 88.871094 15.902344 88.773438 15.988281 88.664062 16.066406 C 88.457031 16.21875 88.246094 16.367188 88.035156 16.523438 C 87.878906 16.636719 87.730469 16.761719 87.574219 16.875 C 87.296875 17.085938 87.011719 17.285156 86.738281 17.5 C 86.585938 17.621094 86.457031 17.769531 86.3125 17.894531 C 85.90625 18.246094 85.484375 18.578125 85.09375 18.945312 C 84.644531 19.378906 84.160156 19.78125 83.792969 20.300781 C 83.738281 20.382812 83.628906 20.425781 83.566406 20.5 C 83.382812 20.722656 83.207031 20.957031 83.03125 21.183594 C 83.011719 21.207031 83.003906 21.234375 82.984375 21.253906 C 82.671875 21.535156 82.457031 21.886719 82.222656 22.226562 C 81.953125 22.625 81.742188 23.058594 81.480469 23.449219 C 81.242188 23.800781 81.140625 24.199219 80.96875 24.566406 C 80.835938 24.847656 80.742188 25.152344 80.667969 25.453125 C 80.554688 25.914062 80.464844 26.382812 80.378906 26.847656 C 80.273438 27.441406 80.195312 28.039062 80.199219 28.640625 C 80.207031 29.117188 80.175781 29.589844 80.210938 30.0625 C 80.238281 30.480469 80.332031 30.890625 80.414062 31.300781 C 80.476562 31.609375 80.566406 31.910156 80.648438 32.214844 C 80.777344 32.699219 81.015625 33.132812 81.269531 33.558594 C 81.5 33.957031 81.746094 34.339844 82.007812 34.714844 C 82.167969 34.945312 82.359375 35.160156 82.550781 35.363281 C 82.808594 35.636719 83.066406 35.914062 83.351562 36.160156 C 83.703125 36.464844 84.085938 36.738281 84.453125 37.027344 C 84.480469 37.046875 84.507812 37.070312 84.539062 37.074219 C 84.828125 37.113281 85.011719 37.339844 85.246094 37.472656 C 85.550781 37.640625 85.847656 37.816406 86.148438 37.988281 C 86.207031 38.023438 86.273438 38.046875 86.3125 38.09375 C 86.425781 38.226562 86.582031 38.273438 86.738281 38.335938 C 86.992188 38.4375 87.230469 38.574219 87.484375 38.683594 C 87.988281 38.898438 88.496094 39.097656 89 39.3125 C 89.21875 39.40625 89.421875 39.535156 89.640625 39.621094 C 89.867188 39.710938 90.105469 39.765625 90.335938 39.835938 C 90.566406 39.90625 90.789062 39.976562 91.019531 40.042969 C 91.289062 40.125 91.558594 40.199219 91.828125 40.28125 C 92.308594 40.421875 92.789062 40.570312 93.273438 40.703125 C 93.457031 40.753906 93.65625 40.761719 93.84375 40.800781 C 94.242188 40.878906 94.636719 40.96875 95.035156 41.058594 C 95.328125 41.121094 95.617188 41.199219 95.910156 41.257812 C 96.160156 41.304688 96.414062 41.332031 96.667969 41.371094 C 96.96875 41.417969 97.265625 41.46875 97.566406 41.515625 C 97.730469 41.542969 97.898438 41.570312 98.0625 41.578125 C 98.359375 41.59375 98.652344 41.605469 98.9375 41.695312 C 99.070312 41.738281 99.234375 41.6875 99.371094 41.722656 C 99.765625 41.828125 100.1875 41.714844 100.570312 41.890625 C 100.589844 41.902344 100.617188 41.894531 100.640625 41.894531 C 100.804688 41.894531 100.972656 41.890625 101.136719 41.894531 C 101.332031 41.902344 101.53125 41.917969 101.730469 41.929688 C 102.269531 41.960938 102.808594 41.996094 103.34375 42.03125 C 103.492188 42.042969 103.636719 42.0625 103.785156 42.066406 C 104.484375 42.078125 105.1875 42.089844 105.886719 42.101562 C 106.109375 42.109375 106.332031 42.136719 106.558594 42.136719 C 107.441406 42.128906 108.328125 42.117188 109.210938 42.101562 C 109.539062 42.097656 109.863281 42.082031 110.191406 42.066406 C 110.660156 42.046875 111.125 42.023438 111.59375 41.996094 C 111.964844 41.976562 112.339844 41.949219 112.714844 41.929688 C 113.105469 41.90625 113.5 41.882812 113.890625 41.855469 C 114.335938 41.824219 114.78125 41.792969 115.222656 41.753906 C 115.703125 41.710938 116.183594 41.660156 116.664062 41.613281 C 117.050781 41.578125 117.441406 41.550781 117.824219 41.507812 C 118.226562 41.460938 118.632812 41.421875 119.023438 41.324219 C 119.292969 41.257812 119.554688 41.269531 119.820312 41.230469 C 120.132812 41.183594 120.445312 41.136719 120.757812 41.089844 C 121.09375 41.042969 121.429688 41 121.765625 40.949219 C 122.042969 40.90625 122.320312 40.863281 122.597656 40.8125 C 122.894531 40.757812 123.1875 40.695312 123.484375 40.636719 C 123.71875 40.589844 123.957031 40.542969 124.195312 40.5 C 124.488281 40.441406 124.785156 40.386719 125.078125 40.324219 C 125.425781 40.246094 125.769531 40.164062 126.113281 40.078125 C 126.585938 39.964844 127.0625 39.851562 127.539062 39.730469 C 127.96875 39.621094 128.398438 39.507812 128.820312 39.378906 C 129.238281 39.253906 129.652344 39.105469 130.0625 38.96875 C 130.328125 38.878906 130.59375 38.785156 130.859375 38.699219 C 131.128906 38.609375 131.410156 38.539062 131.675781 38.4375 C 132.011719 38.308594 132.335938 38.152344 132.664062 38.007812 C 132.761719 37.96875 132.855469 37.933594 132.949219 37.894531 C 133.363281 37.71875 133.78125 37.539062 134.195312 37.363281 C 134.25 37.339844 134.3125 37.339844 134.367188 37.316406 C 134.703125 37.160156 135.039062 37 135.371094 36.839844 C 135.851562 36.605469 136.335938 36.382812 136.808594 36.140625 C 137.15625 35.960938 137.492188 35.765625 137.828125 35.566406 C 138.191406 35.347656 138.542969 35.105469 138.902344 34.878906 C 139.1875 34.695312 139.484375 34.53125 139.757812 34.332031 C 140.265625 33.96875 140.761719 33.585938 141.265625 33.214844 C 142.011719 32.667969 142.652344 32.003906 143.300781 31.351562 C 143.488281 31.164062 143.703125 30.992188 143.835938 30.769531 C 144.152344 30.257812 144.640625 29.882812 144.921875 29.339844 C 145.210938 28.78125 145.492188 28.222656 145.722656 27.632812 C 145.921875 27.121094 146.015625 26.589844 146.160156 26.070312 C 146.222656 25.84375 146.214844 25.59375 146.234375 25.351562 C 146.25 25.140625 146.269531 24.929688 146.269531 24.71875 C 146.265625 24.09375 146.277344 23.464844 146.097656 22.851562 C 146.007812 22.542969 145.945312 22.230469 145.871094 21.917969 C 145.734375 21.34375 145.492188 20.808594 145.226562 20.285156 C 145.066406 19.984375 144.921875 19.671875 144.730469 19.394531 C 144.488281 19.039062 144.210938 18.710938 143.933594 18.382812 C 143.75 18.164062 143.558594 17.957031 143.355469 17.769531 C 142.957031 17.402344 142.558594 17.039062 142.140625 16.699219 C 141.800781 16.421875 141.433594 16.175781 141.0625 15.933594 C 140.71875 15.707031 140.363281 15.496094 140.003906 15.292969 C 139.585938 15.058594 139.167969 14.816406 138.734375 14.617188 C 137.972656 14.269531 137.195312 13.949219 136.425781 13.621094 C 136.074219 13.472656 135.71875 13.332031 135.363281 13.195312 C 134.976562 13.046875 134.589844 12.902344 134.199219 12.765625 C 133.882812 12.65625 133.558594 12.570312 133.242188 12.46875 C 133.085938 12.421875 132.945312 12.339844 132.789062 12.296875 C 132.390625 12.1875 131.980469 12.117188 131.597656 11.972656 C 131.167969 11.8125 130.714844 11.753906 130.285156 11.609375 C 129.769531 11.433594 129.230469 11.3125 128.699219 11.183594 C 128.316406 11.089844 127.929688 11.019531 127.542969 10.9375 C 127.335938 10.894531 127.128906 10.839844 126.921875 10.800781 C 126.640625 10.75 126.355469 10.707031 126.074219 10.660156 C 125.832031 10.621094 125.59375 10.585938 125.351562 10.546875 C 125.144531 10.515625 124.9375 10.484375 124.730469 10.449219 C 124.628906 10.433594 124.527344 10.398438 124.425781 10.382812 C 124.296875 10.363281 124.164062 10.359375 124.035156 10.347656 C 124.007812 10.34375 123.988281 10.316406 123.960938 10.3125 C 123.875 10.292969 123.789062 10.273438 123.703125 10.265625 C 123.570312 10.253906 123.4375 10.25 123.304688 10.242188 C 123.273438 10.238281 123.242188 10.207031 123.214844 10.210938 C 122.894531 10.269531 122.59375 10.128906 122.277344 10.136719 C 122.234375 10.136719 122.160156 10.121094 122.144531 10.089844 C 122.070312 9.949219 121.96875 10.011719 121.863281 10.03125 C 121.800781 10.046875 121.71875 10.058594 121.667969 10.03125 C 121.445312 9.898438 121.191406 9.949219 120.957031 9.898438 C 120.625 9.828125 120.285156 9.777344 119.949219 9.722656 C 119.878906 9.710938 119.804688 9.707031 119.730469 9.699219 C 119.78125 9.640625 119.835938 9.582031 119.875 9.515625 C 119.894531 9.488281 119.890625 9.421875 119.871094 9.402344 C 119.851562 9.382812 119.78125 9.378906 119.757812 9.398438 C 119.597656 9.535156 119.480469 9.425781 119.332031 9.359375 C 119.1875 9.292969 119.011719 9.292969 118.847656 9.269531 C 118.761719 9.253906 118.671875 9.246094 118.582031 9.230469 C 118.554688 9.226562 118.53125 9.207031 118.507812 9.195312 C 118.523438 9.164062 118.53125 9.109375 118.558594 9.097656 C 118.671875 9.054688 118.785156 8.992188 118.898438 8.996094 C 119.390625 9.007812 119.882812 9.007812 120.367188 9.066406 C 120.890625 9.132812 121.410156 9.195312 121.941406 9.207031 C 122.316406 9.21875 122.695312 9.316406 123.070312 9.371094 C 123.128906 9.382812 123.1875 9.382812 123.246094 9.371094 C 123.648438 9.3125 124.035156 9.445312 124.429688 9.480469 C 124.734375 9.507812 125.039062 9.542969 125.34375 9.582031 C 125.710938 9.632812 126.074219 9.699219 126.441406 9.753906 C 126.570312 9.773438 126.699219 9.773438 126.828125 9.792969 C 127.261719 9.863281 127.695312 9.933594 128.128906 10.019531 C 128.511719 10.09375 128.894531 10.191406 129.277344 10.28125 C 129.742188 10.386719 130.210938 10.488281 130.679688 10.59375 C 131.0625 10.683594 131.441406 10.773438 131.820312 10.875 C 132.210938 10.980469 132.601562 11.089844 132.988281 11.210938 C 133.488281 11.367188 133.988281 11.523438 134.480469 11.691406 C 135.042969 11.882812 135.601562 12.074219 136.15625 12.285156 C 136.753906 12.515625 137.347656 12.773438 137.941406 13.023438 C 138.171875 13.117188 138.398438 13.210938 138.621094 13.316406 C 138.804688 13.398438 138.980469 13.488281 139.15625 13.578125 C 139.589844 13.796875 140.023438 14.015625 140.453125 14.246094 C 140.738281 14.398438 141.011719 14.574219 141.292969 14.742188 C 141.554688 14.902344 141.828125 15.050781 142.082031 15.234375 C 142.34375 15.425781 142.582031 15.648438 142.835938 15.851562 C 142.910156 15.914062 143.011719 15.941406 143.085938 16.003906 C 143.296875 16.195312 143.5 16.398438 143.710938 16.589844 C 143.808594 16.675781 143.929688 16.734375 144.015625 16.828125 C 144.476562 17.332031 144.976562 17.800781 145.339844 18.386719 C 145.492188 18.632812 145.695312 18.851562 145.835938 19.105469 C 146.007812 19.40625 146.136719 19.722656 146.285156 20.035156 C 146.398438 20.273438 146.507812 20.511719 146.625 20.75 C 146.753906 21.015625 146.84375 21.289062 146.871094 21.589844 C 146.878906 21.667969 146.945312 21.742188 146.96875 21.824219 C 147.085938 22.21875 147.207031 22.609375 147.21875 23.03125 C 147.226562 23.246094 147.296875 23.457031 147.316406 23.671875 C 147.328125 23.792969 147.289062 23.917969 147.285156 24.042969 C 147.28125 24.257812 147.292969 24.476562 147.285156 24.691406 C 147.273438 24.976562 147.289062 25.261719 147.128906 25.515625 C 147.109375 25.546875 147.101562 25.597656 147.113281 25.628906 C 147.199219 25.886719 147.113281 26.121094 147.039062 26.355469 C 146.875 26.898438 146.730469 27.445312 146.535156 27.976562 C 146.414062 28.308594 146.222656 28.617188 146.046875 28.925781 C 145.765625 29.417969 145.46875 29.898438 145.082031 30.324219 C 144.867188 30.558594 144.648438 30.800781 144.488281 31.082031 C 144.390625 31.257812 144.253906 31.414062 144.109375 31.554688 C 143.839844 31.820312 143.550781 32.070312 143.273438 32.332031 C 143.210938 32.390625 143.183594 32.484375 143.121094 32.546875 C 142.742188 32.910156 142.363281 33.277344 141.964844 33.628906 C 141.671875 33.886719 141.378906 34.152344 141.046875 34.355469 C 140.921875 34.429688 140.839844 34.523438 140.734375 34.597656 C 140.195312 35 139.613281 35.347656 139.066406 35.738281 C 138.652344 36.03125 138.210938 36.28125 137.769531 36.53125 C 137.542969 36.660156 137.328125 36.808594 137.097656 36.925781 C 136.9375 37.007812 136.703125 36.953125 136.632812 37.191406 C 136.171875 37.335938 135.800781 37.644531 135.363281 37.835938 C 134.777344 38.089844 134.210938 38.394531 133.628906 38.652344 C 133.328125 38.785156 133.007812 38.867188 132.695312 38.972656 C 132.648438 38.988281 132.585938 38.980469 132.554688 39.007812 C 132.109375 39.410156 131.511719 39.433594 130.996094 39.667969 C 130.777344 39.765625 130.554688 39.871094 130.324219 39.945312 C 130.085938 40.019531 129.839844 40.058594 129.597656 40.125 C 129.460938 40.160156 129.332031 40.21875 129.199219 40.257812 C 129.058594 40.296875 128.914062 40.363281 128.773438 40.355469 C 128.589844 40.347656 128.460938 40.457031 128.304688 40.503906 C 128.085938 40.566406 127.867188 40.621094 127.644531 40.679688 C 127.519531 40.710938 127.394531 40.746094 127.269531 40.785156 C 127.058594 40.84375 126.847656 40.910156 126.632812 40.972656 C 126.628906 40.972656 126.625 40.984375 126.621094 40.984375 C 126.398438 41.023438 126.175781 41.058594 125.953125 41.097656 C 125.917969 41.101562 125.875 41.085938 125.847656 41.097656 C 125.453125 41.316406 125 41.292969 124.582031 41.402344 C 124.027344 41.550781 123.460938 41.648438 122.894531 41.757812 C 122.476562 41.835938 122.058594 41.898438 121.640625 41.96875 C 121.3125 42.023438 120.988281 42.089844 120.664062 42.140625 C 120.367188 42.1875 120.066406 42.207031 119.765625 42.25 C 119.40625 42.300781 119.046875 42.367188 118.6875 42.421875 C 118.464844 42.453125 118.242188 42.464844 118.019531 42.492188 C 117.660156 42.535156 117.300781 42.589844 116.941406 42.628906 C 116.773438 42.648438 116.601562 42.652344 116.433594 42.667969 C 115.914062 42.710938 115.390625 42.757812 114.871094 42.804688 C 114.601562 42.828125 114.332031 42.855469 114.0625 42.871094 C 113.589844 42.902344 113.117188 42.917969 112.644531 42.945312 C 112.367188 42.960938 112.09375 42.992188 111.816406 43.011719 C 111.78125 43.015625 111.710938 43.011719 111.707031 42.996094 C 111.632812 42.792969 111.585938 42.976562 111.515625 43 C 111.414062 43.035156 111.296875 43.039062 111.1875 43.050781 C 110.984375 43.066406 110.78125 43.078125 110.574219 43.085938 C 110.085938 43.097656 109.59375 43.109375 109.105469 43.121094 C 108.773438 43.128906 108.441406 43.140625 108.109375 43.15625 C 107.875 43.164062 107.640625 43.183594 107.40625 43.1875 C 107.089844 43.195312 106.777344 43.191406 106.460938 43.191406 C 106.257812 43.191406 106.058594 43.265625 105.855469 43.164062 C 105.792969 43.132812 105.691406 43.191406 105.613281 43.1875 C 104.941406 43.179688 104.273438 43.171875 103.601562 43.152344 C 103.132812 43.140625 102.664062 43.117188 102.195312 43.085938 C 101.625 43.046875 101.058594 42.996094 100.492188 42.945312 C 100.011719 42.902344 99.53125 42.851562 99.050781 42.804688 C 98.796875 42.78125 98.535156 42.796875 98.296875 42.726562 C 97.863281 42.601562 97.410156 42.644531 96.980469 42.503906 C 96.640625 42.398438 96.265625 42.402344 95.90625 42.351562 C 95.707031 42.324219 95.507812 42.273438 95.308594 42.238281 C 95.074219 42.195312 94.832031 42.15625 94.597656 42.109375 C 94.335938 42.054688 94.074219 41.996094 93.8125 41.933594 C 93.46875 41.855469 93.121094 41.792969 92.78125 41.6875 C 92.390625 41.5625 91.980469 41.519531 91.589844 41.367188 C 91.355469 41.273438 91.101562 41.214844 90.859375 41.109375 C 90.746094 41.058594 90.597656 41.101562 90.476562 41.0625 C 89.953125 40.894531 89.433594 40.71875 88.917969 40.539062 C 88.761719 40.480469 88.621094 40.378906 88.46875 40.316406 C 87.976562 40.109375 87.476562 39.929688 86.996094 39.703125 C 86.648438 39.542969 86.324219 39.335938 85.988281 39.144531 C 85.652344 38.960938 85.308594 38.785156 84.980469 38.585938 C 84.636719 38.375 84.304688 38.136719 83.972656 37.910156 C 83.796875 37.789062 83.628906 37.664062 83.460938 37.542969 C 83.3125 37.4375 83.148438 37.351562 83.015625 37.230469 C 82.734375 36.964844 82.464844 36.683594 82.191406 36.40625 C 82.070312 36.289062 81.957031 36.167969 81.832031 36.054688 C 81.539062 35.78125 81.339844 35.4375 81.101562 35.121094 C 80.746094 34.648438 80.488281 34.121094 80.222656 33.601562 C 80.042969 33.246094 79.867188 32.882812 79.757812 32.503906 C 79.625 32.03125 79.558594 31.539062 79.46875 31.054688 C 79.328125 30.285156 79.34375 29.503906 79.375 28.726562 C 79.394531 28.171875 79.507812 27.625 79.574219 27.070312 C 79.664062 26.289062 79.886719 25.535156 80.140625 24.792969 C 80.304688 24.3125 80.554688 23.863281 80.757812 23.394531 C 80.847656 23.1875 80.914062 22.96875 81.007812 22.765625 C 81.066406 22.640625 81.15625 22.523438 81.238281 22.410156 C 81.472656 22.074219 81.703125 21.742188 81.945312 21.414062 C 82.195312 21.078125 82.445312 20.746094 82.703125 20.421875 C 82.871094 20.207031 83.042969 20 83.222656 19.796875 C 83.328125 19.675781 83.449219 19.570312 83.5625 19.453125 C 83.84375 19.164062 84.109375 18.859375 84.40625 18.582031 C 84.765625 18.242188 85.152344 17.925781 85.527344 17.597656 C 85.859375 17.304688 86.179688 16.996094 86.519531 16.714844 C 86.808594 16.476562 87.121094 16.261719 87.421875 16.035156 C 87.71875 15.8125 88.011719 15.585938 88.316406 15.371094 C 88.578125 15.1875 88.855469 15.019531 89.125 14.839844 C 89.480469 14.601562 89.832031 14.359375 90.1875 14.125 C 90.320312 14.039062 90.453125 13.957031 90.589844 13.875 C 90.910156 13.679688 91.226562 13.476562 91.550781 13.289062 C 91.824219 13.128906 92.109375 12.984375 92.386719 12.828125 C 92.800781 12.59375 93.210938 12.351562 93.628906 12.117188 C 93.753906 12.046875 93.890625 11.992188 94.015625 11.921875 C 94.09375 11.878906 94.152344 11.84375 94.058594 11.734375 C 93.972656 11.628906 93.9375 11.484375 93.882812 11.355469 C 93.875 11.339844 93.886719 11.296875 93.890625 11.296875 C 93.917969 11.296875 93.960938 11.292969 93.96875 11.308594 C 94.035156 11.402344 94.109375 11.496094 94.148438 11.601562 C 94.195312 11.738281 94.265625 11.792969 94.394531 11.730469 C 94.636719 11.617188 94.875 11.484375 95.117188 11.367188 C 95.292969 11.28125 95.476562 11.203125 95.660156 11.125 C 95.816406 11.054688 95.972656 10.976562 96.132812 10.917969 C 96.234375 10.878906 96.210938 10.824219 96.171875 10.769531 C 96.113281 10.691406 96.039062 10.628906 95.972656 10.554688 C 95.960938 10.539062 95.957031 10.515625 95.949219 10.492188 C 95.976562 10.496094 96.011719 10.484375 96.023438 10.5 C 96.082031 10.554688 96.160156 10.605469 96.1875 10.675781 C 96.25 10.820312 96.355469 10.792969 96.453125 10.753906 C 96.890625 10.570312 97.316406 10.371094 97.753906 10.191406 C 98.28125 9.972656 98.8125 9.769531 99.339844 9.554688 C 99.5625 9.460938 99.773438 9.34375 99.996094 9.242188 C 100.058594 9.214844 100.136719 9.226562 100.207031 9.203125 C 100.792969 9.003906 101.375 8.792969 101.960938 8.601562 C 102.304688 8.488281 102.660156 8.402344 103.007812 8.296875 C 103.304688 8.207031 103.601562 8.105469 103.902344 8.023438 C 104.359375 7.898438 104.816406 7.789062 105.273438 7.671875 C 105.625 7.578125 105.96875 7.46875 106.320312 7.378906 C 106.671875 7.292969 107.023438 7.222656 107.375 7.148438 C 107.488281 7.125 107.601562 7.097656 107.710938 7.066406 C 108.0625 6.976562 108.414062 6.882812 108.765625 6.800781 C 108.902344 6.773438 109.050781 6.785156 109.1875 6.761719 C 109.453125 6.71875 109.714844 6.65625 109.980469 6.613281 C 110.203125 6.574219 110.429688 6.550781 110.65625 6.519531 C 110.820312 6.496094 110.992188 6.492188 111.148438 6.441406 C 111.238281 6.414062 111.304688 6.308594 111.378906 6.242188 C 111.417969 6.203125 111.460938 6.171875 111.5 6.136719 C 111.507812 6.179688 111.503906 6.222656 111.523438 6.257812 C 111.542969 6.292969 111.589844 6.347656 111.617188 6.339844 C 111.976562 6.289062 112.335938 6.222656 112.699219 6.175781 C 112.871094 6.148438 113.046875 6.152344 113.222656 6.136719 C 113.445312 6.117188 113.664062 6.089844 113.878906 6.066406 C 114.304688 6.019531 114.726562 5.96875 115.148438 5.929688 C 115.359375 5.914062 115.574219 5.933594 115.78125 5.925781 C 116.355469 5.90625 116.925781 5.878906 117.496094 5.859375 C 117.644531 5.855469 117.789062 5.886719 117.9375 5.890625 C 118.398438 5.90625 118.859375 5.914062 119.324219 5.929688 C 119.851562 5.945312 120.375 6.023438 120.898438 6.089844 C 121.136719 6.121094 121.382812 6.128906 121.621094 6.171875 C 121.929688 6.226562 122.238281 6.3125 122.550781 6.328125 C 122.839844 6.339844 122.984375 6.628906 123.265625 6.636719 C 123.28125 6.636719 123.308594 6.695312 123.304688 6.699219 C 123.28125 6.726562 123.25 6.761719 123.21875 6.761719 C 123.097656 6.757812 122.972656 6.742188 122.851562 6.730469 C 122.558594 6.695312 122.265625 6.65625 121.96875 6.625 C 121.554688 6.585938 121.136719 6.519531 120.722656 6.535156 C 120.480469 6.542969 120.234375 6.445312 119.980469 6.570312 C 119.847656 6.636719 119.644531 6.582031 119.449219 6.585938 M 130.945312 11.257812 C 130.898438 11.269531 130.851562 11.28125 130.804688 11.292969 C 130.800781 11.292969 130.808594 11.3125 130.808594 11.324219 C 130.859375 11.304688 130.910156 11.28125 130.980469 11.257812 C 131.007812 11.25 131.035156 11.242188 131.066406 11.234375 C 131.0625 11.21875 131.058594 11.207031 131.050781 11.191406 C 131.023438 11.214844 130.992188 11.234375 130.945312 11.257812 M 138.078125 35.988281 C 138.066406 36.011719 138.054688 36.035156 138.042969 36.058594 C 138.070312 36.054688 138.105469 36.054688 138.125 36.039062 C 138.308594 35.9375 138.492188 35.832031 138.675781 35.726562 C 138.707031 35.707031 138.742188 35.691406 138.773438 35.671875 C 138.773438 35.671875 138.753906 35.625 138.75 35.625 C 138.707031 35.632812 138.660156 35.636719 138.621094 35.652344 C 138.5625 35.683594 138.511719 35.726562 138.457031 35.761719 C 138.339844 35.832031 138.214844 35.902344 138.078125 35.988281 M 134.957031 12.230469 C 134.914062 12.265625 134.875 12.296875 134.832031 12.328125 C 134.875 12.34375 134.917969 12.375 134.953125 12.367188 C 135.019531 12.355469 135.082031 12.320312 135.148438 12.292969 C 135.132812 12.277344 135.121094 12.25 135.105469 12.246094 C 135.066406 12.234375 135.027344 12.238281 134.957031 12.230469 M 132.148438 11.449219 C 132.101562 11.492188 132.054688 11.53125 132.007812 11.578125 C 132.007812 11.582031 132.042969 11.636719 132.058594 11.636719 C 132.097656 11.632812 132.160156 11.617188 132.167969 11.59375 C 132.1875 11.542969 132.167969 11.484375 132.148438 11.449219 M 141.707031 16.015625 C 141.75 16.03125 141.792969 16.042969 141.835938 16.058594 C 141.820312 16.003906 141.816406 15.945312 141.789062 15.894531 C 141.777344 15.867188 141.738281 15.855469 141.707031 15.835938 C 141.707031 15.886719 141.707031 15.933594 141.707031 16.015625 M 146.503906 21.398438 C 146.5 21.433594 146.496094 21.464844 146.496094 21.5 C 146.546875 21.484375 146.597656 21.472656 146.648438 21.460938 C 146.613281 21.441406 146.574219 21.421875 146.503906 21.398438 M 120.078125 41.84375 C 120.09375 41.863281 120.105469 41.878906 120.121094 41.898438 C 120.125 41.84375 120.136719 41.789062 120.136719 41.734375 C 120.136719 41.722656 120.097656 41.714844 120.078125 41.707031 C 120.078125 41.738281 120.078125 41.777344 120.078125 41.84375 M 94.769531 11.851562 C 94.804688 11.875 94.839844 11.894531 94.878906 11.914062 C 94.882812 11.917969 94.90625 11.878906 94.917969 11.855469 C 94.875 11.847656 94.832031 11.839844 94.769531 11.851562 M 126.84375 10.089844 C 126.878906 10.101562 126.917969 10.117188 126.953125 10.117188 C 126.960938 10.117188 126.972656 10.074219 126.980469 10.050781 C 126.941406 10.058594 126.902344 10.0625 126.84375 10.089844 M 133.351562 12.09375 C 133.335938 12.125 133.320312 12.15625 133.304688 12.1875 C 133.347656 12.175781 133.390625 12.164062 133.433594 12.152344 C 133.417969 12.128906 133.402344 12.113281 133.351562 12.09375 M 130.316406 11.257812 C 130.289062 11.273438 130.261719 11.296875 130.234375 11.3125 C 130.253906 11.324219 130.289062 11.347656 130.292969 11.347656 C 130.316406 11.320312 130.332031 11.285156 130.316406 11.257812 M 140.171875 14.34375 C 140.144531 14.3125 140.121094 14.285156 140.09375 14.253906 C 140.085938 14.269531 140.066406 14.300781 140.066406 14.300781 C 140.09375 14.324219 140.125 14.339844 140.171875 14.34375 M 89.171875 15.214844 C 89.214844 15.230469 89.253906 15.246094 89.296875 15.261719 C 89.300781 15.25 89.308594 15.234375 89.3125 15.21875 C 89.269531 15.210938 89.230469 15.203125 89.171875 15.214844 M 138.214844 35.640625 C 138.238281 35.652344 138.265625 35.664062 138.289062 35.675781 C 138.292969 35.648438 138.300781 35.617188 138.304688 35.589844 C 138.28125 35.601562 138.257812 35.613281 138.214844 35.640625 M 132.128906 11.777344 C 132.148438 11.800781 132.167969 11.824219 132.1875 11.847656 C 132.195312 11.839844 132.207031 11.828125 132.214844 11.816406 C 132.195312 11.800781 132.171875 11.78125 132.128906 11.777344 M 126.425781 9.984375 C 126.402344 9.96875 126.378906 9.949219 126.351562 9.933594 C 126.34375 9.949219 126.332031 9.964844 126.324219 9.980469 C 126.351562 9.984375 126.378906 9.996094 126.425781 9.984375 M 140.519531 34.210938 C 140.546875 34.238281 140.574219 34.269531 140.605469 34.296875 C 140.613281 34.289062 140.625 34.277344 140.625 34.277344 C 140.59375 34.246094 140.566406 34.222656 140.519531 34.210938 M 131.085938 11.570312 C 131.070312 11.546875 131.058594 11.527344 131.046875 11.503906 C 131.03125 11.519531 131.015625 11.535156 131 11.550781 C 131.019531 11.5625 131.042969 11.574219 131.085938 11.570312 M 109.890625 6.917969 C 109.898438 6.945312 109.90625 6.972656 109.914062 7.003906 C 109.929688 7 109.941406 6.996094 109.957031 6.988281 C 109.941406 6.960938 109.925781 6.929688 109.890625 6.917969 Z M 109.890625 6.917969 " fill-opacity="1" fill-rule="nonzero"/></g><path fill="#000000" d="M 113.007812 41.785156 C 112.984375 41.707031 112.96875 41.636719 112.964844 41.566406 C 112.964844 41.539062 112.996094 41.511719 113.011719 41.484375 C 113.03125 41.503906 113.050781 41.519531 113.066406 41.542969 C 113.136719 41.648438 113.109375 41.765625 113.007812 41.785156 Z M 113.007812 41.785156 " fill-opacity="1" fill-rule="nonzero"/><path fill="#000000" d="M 94.203125 40.652344 C 94.175781 40.710938 94.15625 40.761719 94.136719 40.808594 C 94.121094 40.753906 94.105469 40.695312 94.09375 40.636719 C 94.089844 40.632812 94.101562 40.621094 94.105469 40.609375 C 94.140625 40.5625 94.179688 40.515625 94.214844 40.46875 C 94.210938 40.527344 94.210938 40.585938 94.203125 40.652344 Z M 94.203125 40.652344 " fill-opacity="1" fill-rule="nonzero"/><path fill="#000000" d="M 135.609375 11.753906 C 135.628906 11.734375 135.644531 11.722656 135.65625 11.710938 C 135.636719 11.761719 135.625 11.816406 135.601562 11.863281 C 135.597656 11.875 135.554688 11.867188 135.53125 11.867188 C 135.554688 11.832031 135.578125 11.796875 135.609375 11.753906 Z M 135.609375 11.753906 " fill-opacity="1" fill-rule="nonzero"/><path fill="#000000" d="M 91.160156 21.644531 C 91.203125 21.675781 91.230469 21.707031 91.257812 21.738281 C 91.207031 21.730469 91.160156 21.722656 91.109375 21.714844 C 91.121094 21.691406 91.128906 21.667969 91.160156 21.644531 Z M 91.160156 21.644531 " fill-opacity="1" fill-rule="nonzero"/><path fill="#000000" d="M 123.085938 6.472656 C 123.121094 6.449219 123.160156 6.429688 123.203125 6.414062 C 123.207031 6.429688 123.214844 6.441406 123.21875 6.457031 C 123.175781 6.464844 123.136719 6.472656 123.085938 6.472656 Z M 123.085938 6.472656 " fill-opacity="1" fill-rule="nonzero"/><path fill="#000000" d="M 91.449219 30.4375 C 91.421875 30.429688 91.402344 30.414062 91.382812 30.394531 C 91.421875 30.386719 91.460938 30.378906 91.5 30.371094 C 91.488281 30.390625 91.472656 30.410156 91.449219 30.4375 Z M 91.449219 30.4375 " fill-opacity="1" fill-rule="nonzero"/><path fill="#000000" d="M 108.390625 34.230469 C 108.402344 34.257812 108.394531 34.289062 108.386719 34.320312 C 108.367188 34.308594 108.347656 34.296875 108.328125 34.285156 C 108.34375 34.265625 108.359375 34.246094 108.390625 34.230469 Z M 108.390625 34.230469 " fill-opacity="1" fill-rule="nonzero"/><g clip-path="url(#21af74cb45)"><path fill="#000000" d="M 92.738281 45.304688 C 92.753906 45.28125 92.777344 45.261719 92.804688 45.246094 C 92.8125 45.261719 92.824219 45.277344 92.832031 45.292969 C 92.804688 45.296875 92.777344 45.304688 92.738281 45.304688 Z M 92.738281 45.304688 " fill-opacity="1" fill-rule="nonzero"/></g><path fill="#000000" d="M 135.140625 38.804688 C 135.125 38.828125 135.097656 38.847656 135.074219 38.863281 C 135.0625 38.847656 135.054688 38.832031 135.042969 38.816406 C 135.070312 38.8125 135.101562 38.804688 135.140625 38.804688 Z M 135.140625 38.804688 " fill-opacity="1" fill-rule="nonzero"/><path fill="#000000" d="M 119.617188 9.714844 C 119.582031 9.703125 119.554688 9.683594 119.527344 9.660156 C 119.539062 9.648438 119.550781 9.636719 119.5625 9.625 C 119.582031 9.652344 119.605469 9.679688 119.617188 9.714844 Z M 119.617188 9.714844 " fill-opacity="1" fill-rule="nonzero"/><path fill="#000000" d="M 141.296875 13.914062 C 141.265625 13.921875 141.242188 13.925781 141.21875 13.925781 C 141.222656 13.910156 141.222656 13.882812 141.226562 13.882812 C 141.257812 13.878906 141.285156 13.882812 141.316406 13.882812 C 141.316406 13.882812 141.316406 13.890625 141.316406 13.894531 C 141.3125 13.898438 141.308594 13.902344 141.296875 13.914062 Z M 141.296875 13.914062 " fill-opacity="1" fill-rule="nonzero"/><g fill="#545454" fill-opacity="1"><g transform="translate(120.742884, 21.162976)"><g><path d="M 1.890625 -4.296875 L 1.890625 -3.5 C 2.203125 -4.0625 2.613281 -4.34375 3.125 -4.34375 L 3.125 -3 L 2.796875 -3 C 2.492188 -3 2.265625 -2.925781 2.109375 -2.78125 C 1.960938 -2.644531 1.890625 -2.394531 1.890625 -2.03125 L 1.890625 0 L 0.578125 0 L 0.578125 -4.296875 Z M 1.890625 -4.296875 "/></g></g></g><g fill="#545454" fill-opacity="1"><g transform="translate(125.380112, 21.162976)"><g><path d="M 3.1875 -1.359375 C 3.382812 -1.546875 3.484375 -1.804688 3.484375 -2.140625 C 3.484375 -2.484375 3.382812 -2.742188 3.1875 -2.921875 C 3 -3.109375 2.78125 -3.203125 2.53125 -3.203125 C 2.289062 -3.203125 2.078125 -3.109375 1.890625 -2.921875 C 1.703125 -2.742188 1.609375 -2.484375 1.609375 -2.140625 C 1.609375 -1.804688 1.703125 -1.546875 1.890625 -1.359375 C 2.078125 -1.179688 2.289062 -1.09375 2.53125 -1.09375 C 2.78125 -1.09375 3 -1.179688 3.1875 -1.359375 Z M 0.828125 -0.5625 C 0.453125 -0.96875 0.265625 -1.492188 0.265625 -2.140625 C 0.265625 -2.785156 0.453125 -3.3125 0.828125 -3.71875 C 1.210938 -4.132812 1.675781 -4.34375 2.21875 -4.34375 C 2.769531 -4.34375 3.191406 -4.140625 3.484375 -3.734375 L 3.484375 -4.296875 L 4.796875 -4.296875 L 4.796875 0 L 3.484375 0 L 3.484375 -0.625 C 3.160156 -0.175781 2.734375 0.046875 2.203125 0.046875 C 1.671875 0.046875 1.210938 -0.15625 0.828125 -0.5625 Z M 0.828125 -0.5625 "/></g></g></g><g fill="#545454" fill-opacity="1"><g transform="translate(132.127449, 21.162976)"><g><path d="M 0.859375 -0.546875 C 0.460938 -0.941406 0.265625 -1.472656 0.265625 -2.140625 C 0.265625 -2.816406 0.460938 -3.351562 0.859375 -3.75 C 1.253906 -4.144531 1.769531 -4.34375 2.40625 -4.34375 C 2.925781 -4.34375 3.367188 -4.210938 3.734375 -3.953125 C 4.097656 -3.691406 4.335938 -3.320312 4.453125 -2.84375 L 3.03125 -2.84375 C 2.90625 -3.101562 2.703125 -3.234375 2.421875 -3.234375 C 2.148438 -3.234375 1.945312 -3.132812 1.8125 -2.9375 C 1.675781 -2.738281 1.609375 -2.472656 1.609375 -2.140625 C 1.609375 -1.816406 1.675781 -1.554688 1.8125 -1.359375 C 1.945312 -1.171875 2.144531 -1.078125 2.40625 -1.078125 C 2.570312 -1.078125 2.695312 -1.101562 2.78125 -1.15625 C 2.875 -1.207031 2.957031 -1.304688 3.03125 -1.453125 L 4.453125 -1.453125 C 4.335938 -0.992188 4.09375 -0.628906 3.71875 -0.359375 C 3.351562 -0.0859375 2.914062 0.046875 2.40625 0.046875 C 1.769531 0.046875 1.253906 -0.148438 0.859375 -0.546875 Z M 0.859375 -0.546875 "/></g></g></g><g fill="#545454" fill-opacity="1"><g transform="translate(138.120077, 21.162976)"><g><path d="M 2.40625 -1.109375 L 2.875 -1.109375 L 2.875 0 L 2.203125 0 C 1.722656 0 1.347656 -0.101562 1.078125 -0.3125 C 0.816406 -0.53125 0.6875 -0.898438 0.6875 -1.421875 L 0.6875 -3.203125 L 0.28125 -3.203125 L 0.28125 -4.296875 L 0.6875 -4.296875 L 0.6875 -5.34375 L 2 -5.34375 L 2 -4.296875 L 2.859375 -4.296875 L 2.859375 -3.203125 L 2 -3.203125 L 2 -1.421875 C 2 -1.210938 2.132812 -1.109375 2.40625 -1.109375 Z M 2.40625 -1.109375 "/></g></g></g><g clip-path="url(#63ee150649)"><path fill="#000000" d="M 127.722656 12.292969 L 131.367188 3.882812 L 115.230469 11.042969 L 116.441406 9.355469 L 112.613281 10.628906 L 109.191406 16.277344 L 118.101562 13.457031 L 118.0625 13.46875 L 114.410156 23.867188 L 117.984375 30.9375 L 124.035156 30.9375 L 124.941406 27.464844 L 126.136719 27.960938 L 124.109375 25.136719 L 122.027344 26.871094 L 119.269531 21.960938 L 121.726562 12.308594 L 124.40625 11.460938 L 123.664062 13.304688 Z M 127.722656 12.292969 " fill-opacity="1" fill-rule="nonzero"/></g><g clip-path="url(#be960ec51d)"><path fill="#545454" d="M 126.84375 11.652344 L 130.484375 3.242188 L 114.347656 10.402344 L 115.5625 8.714844 L 111.730469 9.988281 L 108.3125 15.636719 L 117.21875 12.816406 L 117.183594 12.828125 L 113.53125 23.226562 L 117.105469 30.292969 L 123.15625 30.292969 L 124.0625 26.824219 L 125.257812 27.320312 L 123.230469 24.496094 L 121.144531 26.230469 L 118.386719 21.320312 L 120.847656 11.667969 L 123.523438 10.820312 L 122.785156 12.664062 Z M 126.84375 11.652344 " fill-opacity="1" fill-rule="nonzero"/></g><g clip-path="url(#6029dbd296)"><path fill="#000000" d="M 108.3125 15.777344 C 108.269531 15.777344 108.226562 15.757812 108.203125 15.726562 C 108.164062 15.679688 108.160156 15.613281 108.191406 15.5625 L 111.613281 9.914062 C 111.628906 9.886719 111.65625 9.863281 111.6875 9.855469 L 115.515625 8.582031 C 115.578125 8.5625 115.640625 8.582031 115.675781 8.632812 C 115.710938 8.679688 115.710938 8.75 115.675781 8.800781 L 114.769531 10.058594 L 130.429688 3.109375 C 130.484375 3.085938 130.546875 3.097656 130.585938 3.136719 C 130.628906 3.179688 130.640625 3.242188 130.617188 3.296875 L 126.972656 11.710938 C 126.957031 11.75 126.917969 11.78125 126.875 11.792969 L 122.816406 12.804688 C 122.765625 12.820312 122.710938 12.796875 122.675781 12.757812 C 122.640625 12.71875 122.628906 12.660156 122.648438 12.613281 L 123.277344 11.050781 L 108.355469 15.773438 C 108.339844 15.777344 108.328125 15.777344 108.3125 15.777344 Z M 111.828125 10.109375 L 108.628906 15.386719 L 123.480469 10.683594 C 123.535156 10.667969 123.59375 10.683594 123.628906 10.722656 C 123.667969 10.765625 123.679688 10.824219 123.660156 10.875 L 123.023438 12.460938 L 126.742188 11.535156 L 130.210938 3.519531 L 114.40625 10.53125 C 114.347656 10.558594 114.277344 10.542969 114.238281 10.492188 C 114.199219 10.441406 114.195312 10.375 114.234375 10.320312 L 115.1875 8.992188 Z M 111.828125 10.109375 " fill-opacity="1" fill-rule="nonzero"/></g><g clip-path="url(#c59ca2c8ed)"><path fill="#000000" d="M 123.15625 30.4375 L 117.105469 30.4375 C 117.050781 30.4375 117 30.40625 116.976562 30.359375 L 113.402344 23.289062 C 113.386719 23.257812 113.382812 23.214844 113.394531 23.179688 L 117.046875 12.78125 C 117.074219 12.707031 117.15625 12.667969 117.230469 12.691406 C 117.304688 12.71875 117.34375 12.800781 117.316406 12.875 L 113.683594 23.214844 L 117.1875 30.152344 L 123.046875 30.152344 L 123.921875 26.789062 C 123.933594 26.75 123.960938 26.714844 123.996094 26.699219 C 124.035156 26.679688 124.074219 26.679688 124.113281 26.695312 L 124.84375 27 L 123.199219 24.707031 L 121.230469 26.34375 C 121.199219 26.371094 121.15625 26.382812 121.113281 26.375 C 121.070312 26.367188 121.039062 26.34375 121.015625 26.304688 L 118.261719 21.394531 C 118.246094 21.359375 118.238281 21.324219 118.25 21.289062 L 120.707031 11.632812 C 120.726562 11.554688 120.804688 11.511719 120.882812 11.53125 C 120.957031 11.550781 121.003906 11.628906 120.984375 11.703125 L 118.539062 21.304688 L 121.183594 26.015625 L 123.140625 24.390625 C 123.171875 24.363281 123.210938 24.351562 123.246094 24.359375 C 123.285156 24.363281 123.320312 24.382812 123.34375 24.414062 L 125.367188 27.238281 C 125.40625 27.292969 125.402344 27.363281 125.363281 27.410156 C 125.324219 27.460938 125.257812 27.480469 125.199219 27.453125 L 124.160156 27.019531 L 123.296875 30.328125 C 123.277344 30.390625 123.222656 30.4375 123.15625 30.4375 Z M 123.15625 30.4375 " fill-opacity="1" fill-rule="nonzero"/></g><path fill="#000000" d="M 121.277344 26.171875 L 122.265625 28.691406 L 121.015625 26.289062 Z M 121.277344 26.171875 " fill-opacity="1" fill-rule="nonzero"/><path fill="#000000" d="M 123.472656 10.691406 L 126.046875 9.753906 L 123.582031 10.953125 Z M 123.472656 10.691406 " fill-opacity="1" fill-rule="nonzero"/><g clip-path="url(#bd8ce93ec3)"><path fill="#000000" d="M 109.996094 18.90625 L 95.371094 6.878906 L 86.238281 10.890625 L 89.535156 17.988281 L 87.316406 18.941406 L 94.765625 22.085938 L 98.265625 17.230469 L 100.242188 18.53125 L 99.683594 20.570312 L 87.835938 27.730469 L 87.207031 31.007812 L 92.679688 29.035156 L 93.328125 29.660156 L 85.347656 42.457031 C 90.207031 40.605469 96.257812 41.523438 96.257812 41.523438 L 98.859375 35.796875 L 95.792969 37.144531 L 99.832031 27.480469 L 98.617188 26.90625 L 108.472656 23.359375 Z M 109.996094 18.90625 " fill-opacity="1" fill-rule="nonzero"/></g><g clip-path="url(#d395dec14a)"><path fill="#73bfeb" d="M 109.332031 17.59375 L 94.703125 5.5625 L 85.570312 9.570312 L 88.867188 16.671875 L 86.648438 17.625 L 94.097656 20.769531 L 97.601562 15.917969 L 99.578125 17.214844 L 99.019531 19.257812 L 87.164062 26.417969 L 86.539062 29.695312 L 92.011719 27.722656 L 92.65625 28.347656 L 84.683594 41.140625 C 89.542969 39.292969 95.589844 40.203125 95.589844 40.203125 L 98.1875 34.480469 L 95.121094 35.828125 L 99.164062 26.160156 L 97.945312 25.585938 L 107.800781 22.039062 Z M 109.332031 17.59375 " fill-opacity="1" fill-rule="nonzero"/><path fill="#000000" d="M 84.683594 41.34375 C 84.625 41.34375 84.570312 41.3125 84.527344 41.269531 C 84.472656 41.203125 84.46875 41.109375 84.511719 41.039062 L 92.398438 28.382812 L 91.960938 27.960938 L 86.605469 29.882812 C 86.539062 29.90625 86.464844 29.894531 86.410156 29.847656 C 86.355469 29.796875 86.332031 29.726562 86.34375 29.65625 L 86.96875 26.382812 C 86.980469 26.324219 87.015625 26.277344 87.0625 26.25 L 98.851562 19.136719 L 99.351562 17.3125 L 97.648438 16.195312 L 94.257812 20.894531 C 94.203125 20.972656 94.105469 21 94.019531 20.964844 L 86.570312 17.820312 C 86.496094 17.789062 86.445312 17.71875 86.445312 17.636719 C 86.445312 17.558594 86.496094 17.484375 86.566406 17.453125 L 88.597656 16.578125 L 85.390625 9.667969 C 85.367188 9.621094 85.367188 9.5625 85.382812 9.511719 C 85.402344 9.460938 85.4375 9.421875 85.488281 9.398438 L 94.621094 5.378906 C 94.691406 5.351562 94.769531 5.359375 94.824219 5.40625 L 109.453125 17.4375 C 109.519531 17.488281 109.546875 17.578125 109.519531 17.65625 L 107.988281 22.101562 C 107.96875 22.15625 107.925781 22.207031 107.871094 22.226562 L 98.46875 25.609375 L 99.25 25.976562 C 99.347656 26.023438 99.390625 26.136719 99.351562 26.238281 L 95.496094 35.445312 L 98.113281 34.292969 C 98.1875 34.261719 98.277344 34.277344 98.335938 34.339844 C 98.394531 34.398438 98.40625 34.488281 98.375 34.5625 L 95.773438 40.289062 C 95.738281 40.367188 95.652344 40.417969 95.566406 40.40625 C 95.550781 40.402344 94.035156 40.175781 91.957031 40.179688 C 90.042969 40.183594 87.234375 40.386719 84.753906 41.332031 C 84.730469 41.339844 84.707031 41.34375 84.683594 41.34375 Z M 92.011719 27.523438 C 92.0625 27.523438 92.109375 27.542969 92.148438 27.578125 L 92.796875 28.203125 C 92.863281 28.269531 92.875 28.375 92.828125 28.457031 L 85.15625 40.761719 C 87.546875 39.960938 90.148438 39.78125 91.960938 39.78125 C 93.695312 39.777344 95.039062 39.933594 95.46875 39.988281 L 97.792969 34.871094 L 95.199219 36.011719 C 95.125 36.042969 95.039062 36.027344 94.984375 35.972656 C 94.921875 35.917969 94.90625 35.828125 94.9375 35.753906 L 98.910156 26.261719 L 97.863281 25.769531 C 97.792969 25.734375 97.746094 25.660156 97.75 25.578125 C 97.753906 25.496094 97.804688 25.425781 97.878906 25.398438 L 107.644531 21.882812 L 109.097656 17.660156 L 94.667969 5.796875 L 85.835938 9.675781 L 89.050781 16.589844 C 89.074219 16.640625 89.074219 16.695312 89.054688 16.746094 C 89.035156 16.800781 88.996094 16.839844 88.949219 16.859375 L 87.160156 17.628906 L 94.03125 20.527344 L 97.441406 15.804688 C 97.503906 15.71875 97.617188 15.695312 97.710938 15.753906 L 99.6875 17.050781 C 99.757812 17.101562 99.792969 17.1875 99.769531 17.273438 L 99.210938 19.316406 C 99.199219 19.363281 99.164062 19.40625 99.121094 19.433594 L 87.34375 26.542969 L 86.796875 29.386719 L 91.941406 27.53125 C 91.96875 27.527344 91.988281 27.523438 92.011719 27.523438 Z M 92.011719 27.523438 " fill-opacity="1" fill-rule="nonzero"/></g><path fill="#000000" d="M 97.480469 16.074219 L 94.960938 13.78125 L 97.730469 15.761719 C 97.945312 15.933594 97.691406 16.253906 97.480469 16.074219 Z M 97.480469 16.074219 " fill-opacity="1" fill-rule="nonzero"/><path fill="#000000" d="M 97.996094 25.78125 L 94.972656 26.324219 L 97.898438 25.394531 C 98.167969 25.316406 98.269531 25.71875 97.996094 25.78125 Z M 97.996094 25.78125 " fill-opacity="1" fill-rule="nonzero"/><g fill="#73bfeb" fill-opacity="1"><g transform="translate(101.051172, 35.995399)"><g><path d="M 2.484375 -6.6875 C 2.273438 -6.476562 2.019531 -6.375 1.71875 -6.375 C 1.414062 -6.375 1.160156 -6.476562 0.953125 -6.6875 C 0.742188 -6.90625 0.640625 -7.164062 0.640625 -7.46875 C 0.640625 -7.769531 0.742188 -8.023438 0.953125 -8.234375 C 1.160156 -8.441406 1.414062 -8.546875 1.71875 -8.546875 C 2.019531 -8.546875 2.273438 -8.441406 2.484375 -8.234375 C 2.691406 -8.023438 2.796875 -7.769531 2.796875 -7.46875 C 2.796875 -7.164062 2.691406 -6.90625 2.484375 -6.6875 Z M 0.8125 0 L 0.8125 -6.015625 L 2.65625 -6.015625 L 2.65625 0 Z M 0.8125 0 "/></g></g></g><g fill="#73bfeb" fill-opacity="1"><g transform="translate(106.432688, 35.995399)"><g><path d="M 5.890625 -6.015625 L 3.953125 -3.109375 L 5.890625 0 L 3.8125 0 L 2.828125 -1.5625 L 1.859375 0 L 0.046875 0 L 2 -2.90625 L 0.046875 -6.015625 L 2.109375 -6.015625 L 3.09375 -4.453125 L 4.0625 -6.015625 Z M 5.890625 -6.015625 "/></g></g></g></svg>